<svg version="1.1" xmlns="http://www.w3.org/2000/svg" viewBox="0 0 241 194.5" width="482" height="389">
  <!-- svg-source:excalidraw -->
  
  <defs>
    <style>
      @font-face {
        font-family: "Virgil";
        src: url("https://excalidraw.com/Virgil.woff2");
      }
      @font-face {
        font-family: "Cascadia";
        src: url("https://excalidraw.com/Cascadia.woff2");
      }
    </style>
  </defs>
  <g stroke-linecap="round" transform="translate(10 149.5) rotate(0 14 17.5)"><path d="M-0.83 0.97 C8.46 1.76, 19.35 1.7, 29.79 1.54 M0.58 -0.32 C10.86 0.91, 20.96 -0.44, 27.64 -0.97 M26.88 1.09 C29.56 7.81, 26.28 13.37, 26.96 34.18 M27.57 0.7 C27.21 13.39, 27.78 27.26, 27.05 34.38 M29.71 36.36 C20.73 36.52, 14.91 33.61, 1.93 34.58 M28.88 34.44 C20 34.83, 13.38 34.85, -0.38 34.07 M0.93 33.87 C1.62 26.13, 1.37 16.47, 0.37 -0.36 M0.51 35.52 C0.4 23.83, -1.03 13.59, 0.11 -0.86" stroke="#000000" stroke-width="1" fill="none"></path></g><g stroke-linecap="round" transform="translate(57 148.5) rotate(0 14 17.5)"><path d="M0.28 1.88 C7 -0.17, 17.68 -1.42, 28.21 0.6 M0.39 0.14 C10.72 -0.02, 19.38 0.4, 27.32 -0.77 M28.72 -1.65 C28.81 8.59, 26.98 16.95, 26.13 36.96 M27.41 -0.13 C27.38 9.81, 28.45 20.93, 28.73 35.17 M29.42 33.02 C18.86 36.61, 9.77 34.54, 1.6 34.75 M28.11 35.77 C21.39 34.38, 15.24 34.22, 0.25 35.6 M-0.73 36.55 C0.61 23.06, 1.8 14.05, -1.18 -1.42 M0.35 35.51 C0.33 23.11, 0.39 12.33, 0.36 0.66" stroke="#000000" stroke-width="1" fill="none"></path></g><g stroke-linecap="round" transform="translate(103 147.5) rotate(0 14 17.5)"><path d="M-1.39 1.56 C8.26 0.26, 17.6 -0.29, 26.69 0.3 M0.12 -0.39 C5.44 -0.54, 13.01 0.07, 27.5 0.83 M28.47 0.26 C28.99 12.79, 28.82 24.92, 26.86 35.86 M28.39 -0.41 C29.02 9.63, 27.33 20.81, 27.37 34.07 M28.92 34.63 C15.84 36.8, 7.27 33.43, 2 36.16 M28.01 35.69 C21.42 35.5, 16 34.82, 0.13 34.65 M-0.67 36.3 C1.14 25.83, 0.34 13.11, -0.84 0.41 M0 35.19 C0.44 25.37, 0.3 15.93, 0.24 0.53" stroke="#000000" stroke-width="1" fill="none"></path></g><g stroke-linecap="round" transform="translate(102.5 102) rotate(0 14 17.5)"><path d="M0.73 1.33 C7.59 -0.81, 15.41 -1.61, 26.41 -0.11 M0.27 0.79 C7.09 -0.45, 12.72 0.52, 28.69 -0.9 M28.44 0.15 C28.23 15.37, 27.58 28.95, 29.05 34.59 M28.44 -0.72 C27.54 11.59, 28.52 22.87, 28.25 35.2 M29.43 36.11 C20.78 35.31, 14.93 34.94, 1.1 35.39 M28.06 35.07 C18.78 35.18, 10.55 35.53, -0.16 35.08 M1.13 33.42 C0.83 22.12, 0.45 7.5, -0.48 -0.78 M0.77 34.01 C0.76 27.12, -0.93 20.96, -0.7 0.56" stroke="#000000" stroke-width="1" fill="none"></path></g><g stroke-linecap="round" transform="translate(103 56) rotate(0 14 17.5)"><path d="M1 0 C7.63 -1.52, 13.56 -0.56, 26.28 -0.15 M0.73 -0.38 C4.68 1.24, 10.58 0.84, 28.16 0.15 M29.69 0.09 C26.61 8.09, 26.64 14.31, 28.63 36.48 M28.13 0.29 C27.15 7.5, 27.7 17.51, 27.66 35.81 M29.37 36.38 C18.58 33.37, 12.66 32.99, -1.22 34.91 M27.39 35.38 C22.32 34.53, 16 36.13, -0.99 35.84 M0.14 35.27 C-1.14 23.15, 0.78 12.23, -1.52 -1.89 M-0.19 34.16 C0.5 24.2, -0.31 15.05, -0.38 0.53" stroke="#000000" stroke-width="1" fill="none"></path></g><g stroke-linecap="round" transform="translate(103 11.5) rotate(0 14 17.5)"><path d="M-1.99 -1.22 C6.78 -1.78, 15.53 1.64, 26.79 0.75 M0.87 -0.99 C10.57 0.12, 20.44 -0.19, 28.07 0.13 M27.68 -1.52 C26 9.08, 29.3 16.24, 27.63 33.33 M28.98 -0.38 C28.41 13.63, 27.36 25.83, 28.54 35.82 M26.41 35.15 C16.31 34.53, 7.37 36.33, 0.02 35.24 M27.42 35.87 C21.23 34.71, 13.77 34.1, -0.79 35.83 M1.84 36.05 C1.51 21.32, -0.75 7.05, 0.68 -2 M0.21 34.59 C-0.87 24.7, -0.71 14.54, -0.12 0.31" stroke="#000000" stroke-width="1" fill="none"></path></g><g stroke-linecap="round" transform="translate(154 11) rotate(0 14 17.5)"><path d="M-1.33 -1.16 C10.49 0.63, 17.27 -0.31, 26.58 -1.58 M0.06 0.92 C11.24 0.77, 21.08 -0.36, 27.02 0.34 M28.37 0.42 C27.15 5.7, 27.8 13.01, 27.92 34.76 M28.47 0.32 C27.83 11.97, 28.06 23.18, 28.72 35.32 M29.48 35.65 C17.79 36.09, 6.5 36.79, -0.17 33.26 M28.37 34.61 C17.68 35.13, 5.67 36.1, 0 34.01 M0.5 34.51 C-1.84 24.77, 1.69 12.67, 0.18 -1.21 M-0.95 35.34 C-0.32 24.77, -0.29 14.36, 0.27 0.46" stroke="#000000" stroke-width="1" fill="none"></path></g><g stroke-linecap="round" transform="translate(203 10) rotate(0 14 17.5)"><path d="M-0.53 1.48 C9.94 0.87, 19.74 0.52, 29.86 -0.17 M0.83 0.37 C5.58 0.54, 11.82 -0.61, 28.87 0 M27.06 0.5 C27.65 5.12, 29.9 15.7, 29.63 35.18 M27.96 -0.95 C28.35 7.76, 28.31 16.17, 28.43 35.27 M27.37 35.72 C19.51 33.05, 7.83 34.23, -0.78 35.95 M27.56 34.32 C22.94 34.45, 16.98 35.54, -0.98 34.29 M-0.36 34.03 C-1.47 25.93, -0.63 15.19, -0.92 -0.96 M0.7 35.61 C-0.04 25.03, -1.16 16.48, -0.43 -0.72" stroke="#000000" stroke-width="1" fill="none"></path></g><g transform="translate(15 154.5) rotate(0 9 12.5)"><text x="9" y="18" font-family="Virgil, Segoe UI Emoji" font-size="20px" fill="#000000" text-anchor="middle" style="white-space: pre;" direction="ltr">5</text></g><g transform="translate(62 153.5) rotate(0 9 12.5)"><text x="9" y="18" font-family="Virgil, Segoe UI Emoji" font-size="20px" fill="#000000" text-anchor="middle" style="white-space: pre;" direction="ltr">3</text></g><g transform="translate(108 152.5) rotate(0 9 12.5)"><text x="9" y="18" font-family="Virgil, Segoe UI Emoji" font-size="20px" fill="#000000" text-anchor="middle" style="white-space: pre;" direction="ltr">8</text></g><g transform="translate(107.5 107) rotate(0 9 12.5)"><text x="9" y="18" font-family="Virgil, Segoe UI Emoji" font-size="20px" fill="#000000" text-anchor="middle" style="white-space: pre;" direction="ltr">1</text></g><g transform="translate(108 61) rotate(0 9 12.5)"><text x="9" y="18" font-family="Virgil, Segoe UI Emoji" font-size="20px" fill="#000000" text-anchor="middle" style="white-space: pre;" direction="ltr">7</text></g><g transform="translate(108 16.5) rotate(0 9 12.5)"><text x="9" y="18" font-family="Virgil, Segoe UI Emoji" font-size="20px" fill="#000000" text-anchor="middle" style="white-space: pre;" direction="ltr">2</text></g><g transform="translate(159 16) rotate(0 9 12.5)"><text x="9" y="18" font-family="Virgil, Segoe UI Emoji" font-size="20px" fill="#000000" text-anchor="middle" style="white-space: pre;" direction="ltr">4</text></g><g transform="translate(208 15) rotate(0 9 12.5)"><text x="9" y="18" font-family="Virgil, Segoe UI Emoji" font-size="20px" fill="#000000" text-anchor="middle" style="white-space: pre;" direction="ltr">5</text></g></svg>